# xmcd CD database file
#
# Track frame offsets:
#	150
#	13017
#	27683
#	42315
#	55678
#	70232
#	84430
#	98372
#	110186
#	125095
#	139181
#	154199
#	168070
#	179929
#	193596
#	206786
#	220856
#	235351
#	250771
#	265278
#	280208
#
# Disc length: 3909 seconds
#
# Revision: 3
# Processed by: cddbd v1.5.1PL2 Copyright (c) Steve Scherf et al.
# Submitted via: CDex 1.50
#
DISCID=3c0f4315
DTITLE=Ella Fitzgerald - The Legend
DYEAR=2005
DGENRE=Jazz
TTITLE0=Lullaby of Birdland
TTITLE1=How high the moon
TTITLE2=How long has this been going on?
TTITLE3=Solid as a rock
TTITLE4=Rough ridin'
TTITLE5=I wished on the moon
TTITLE6=Smooth sailing
TTITLE7=(It's only a) Paper moon
TTITLE8=Sentimental journey
TTITLE9=Oh! Lady be good
TTITLE10=What is there to say?
TTITLE11=Black coffee
TTITLE12=In the evening when the sun goes down
TTITLE13=Airmail special
TTITLE14=Until the real thing comes along
TTITLE15=Basin street blues
TTITLE16=But not for me
TTITLE17=Maybe
TTITLE18=Ain't nobody's business but my own
TTITLE19=I didn't mean a word I said
TTITLE20=I'm just a lucky so and so
EXTD=YEAR: 2005
EXTT0=
EXTT1=
EXTT2=
EXTT3=
EXTT4=
EXTT5=
EXTT6=
EXTT7=
EXTT8=
EXTT9=
EXTT10=
EXTT11=
EXTT12=
EXTT13=
EXTT14=
EXTT15=
EXTT16=
EXTT17=
EXTT18=
EXTT19=
EXTT20=
PLAYORDER=
